<svg xmlns="http://www.w3.org/2000/svg" xmlns:xlink="http://www.w3.org/1999/xlink" width="50" height="50" viewBox="0 0 50 50"><defs><clipPath id="a"><rect width="50" height="50" fill="none"/></clipPath></defs><g transform="translate(-212 -846)"><rect width="32" height="32" transform="translate(222 856)" fill="#fff"/><g transform="translate(212 846)" clip-path="url(#a)"><path d="M216.574,211.787A4.787,4.787,0,1,1,211.787,207,4.787,4.787,0,0,1,216.574,211.787Zm0,0" transform="translate(-186.787 -186.787)" fill="#343434"/><path d="M158.453,138.792a4.755,4.755,0,0,0-2.725-2.725,7.945,7.945,0,0,0-2.666-.494c-1.515-.069-1.969-.084-5.8-.084s-4.289.014-5.8.084a7.95,7.95,0,0,0-2.666.495,4.758,4.758,0,0,0-2.726,2.725,7.948,7.948,0,0,0-.494,2.667c-.069,1.514-.084,1.968-.084,5.8s.015,4.288.084,5.8a7.946,7.946,0,0,0,.494,2.666,4.755,4.755,0,0,0,2.725,2.725,7.935,7.935,0,0,0,2.667.495c1.514.069,1.968.084,5.8.084s4.289-.015,5.8-.084a7.936,7.936,0,0,0,2.667-.495,4.755,4.755,0,0,0,2.725-2.725,7.953,7.953,0,0,0,.495-2.666c.069-1.515.084-1.969.084-5.8s-.015-4.289-.084-5.8A7.936,7.936,0,0,0,158.453,138.792Zm-11.195,15.844a7.374,7.374,0,1,1,7.374-7.374A7.374,7.374,0,0,1,147.258,154.636Zm7.666-13.317a1.723,1.723,0,1,1,1.723-1.723A1.723,1.723,0,0,1,154.924,141.319Zm0,0" transform="translate(-122.258 -122.262)" fill="#343434"/><path d="M25,0A25,25,0,1,0,50,25,25,25,0,0,0,25,0ZM39.269,30.918A10.532,10.532,0,0,1,38.6,34.4a7.34,7.34,0,0,1-4.2,4.2,10.54,10.54,0,0,1-3.484.667c-1.531.07-2.02.087-5.919.087s-4.388-.017-5.919-.087A10.54,10.54,0,0,1,15.6,38.6a7.34,7.34,0,0,1-4.2-4.2,10.53,10.53,0,0,1-.667-3.484c-.071-1.531-.087-2.02-.087-5.919s.016-4.388.087-5.919A10.533,10.533,0,0,1,11.4,15.6a7.345,7.345,0,0,1,4.2-4.2,10.542,10.542,0,0,1,3.485-.667c1.531-.07,2.02-.087,5.919-.087s4.388.017,5.919.087A10.544,10.544,0,0,1,34.4,11.4a7.342,7.342,0,0,1,4.2,4.2,10.531,10.531,0,0,1,.668,3.485c.07,1.531.086,2.02.086,5.919S39.339,29.388,39.269,30.918Zm0,0" fill="#343434"/></g></g></svg>